<svg width="63" height="63" viewBox="0 0 63 63" fill="none" xmlns="http://www.w3.org/2000/svg">
                                    <path d="M61.9688 0.015625H23.375C23.1056 0.015625 22.8473 0.122628 22.6568 0.313095C22.4664 0.503561 22.3594 0.76189 22.3594 1.03125V2.04688H19.3125C19.0431 2.04688 18.7848 2.15388 18.5943 2.34434C18.4039 2.53481 18.2969 2.79314 18.2969 3.0625V28.4531H16.2656C16.0769 28.453 15.8919 28.5055 15.7313 28.6047C15.5707 28.704 15.441 28.8459 15.3566 29.0148L13.6067 32.5156H10.1719V29.4688C10.1719 29.1994 10.0649 28.9411 9.8744 28.7506C9.68394 28.5601 9.42561 28.4531 9.15625 28.4531H5.09375C4.82439 28.4531 4.56606 28.5601 4.3756 28.7506C4.18513 28.9411 4.07812 29.1994 4.07812 29.4688V32.5156H3.0625C2.25442 32.5156 1.47943 32.8366 0.908034 33.408C0.336634 33.9794 0.015625 34.7544 0.015625 35.5625V59.9375C0.015625 60.7456 0.336634 61.5206 0.908034 62.092C1.47943 62.6634 2.25442 62.9844 3.0625 62.9844H41.6562C42.4643 62.9844 43.2393 62.6634 43.8107 62.092C44.3821 61.5206 44.7031 60.7456 44.7031 59.9375V44.7031H59.9375C60.2069 44.7031 60.4652 44.5961 60.6557 44.4057C60.8461 44.2152 60.9531 43.9569 60.9531 43.6875V40.6406H61.9688C62.2381 40.6406 62.4964 40.5336 62.6869 40.3432C62.8774 40.1527 62.9844 39.8944 62.9844 39.625V1.03125C62.9844 0.76189 62.8774 0.503561 62.6869 0.313095C62.4964 0.122628 62.2381 0.015625 61.9688 0.015625ZM20.3281 4.07812H22.3594V28.4531H20.3281V4.07812ZM16.8933 30.4844H27.8255L28.8411 32.5156H15.8777L16.8933 30.4844ZM42.2534 32.5755L44.4208 28.2409L47.1406 30.2812C47.3164 30.4131 47.5303 30.4844 47.75 30.4844C47.9697 30.4844 48.1836 30.4131 48.3594 30.2812L51.0792 28.2409L56.263 38.6094H44.7031V35.5625C44.7029 34.8582 44.4588 34.1757 44.0121 33.6312C43.5655 33.0866 42.9441 32.7136 42.2534 32.5755ZM38.6094 32.5156H36.5781V30.4844H38.6094V32.5156ZM47.75 28.1992L45.344 26.3955L47.75 21.5834L50.156 26.3955L47.75 28.1992ZM40.6406 31.2603V29.4688C40.6406 29.1994 40.5336 28.9411 40.3432 28.7506C40.1527 28.5601 39.8944 28.4531 39.625 28.4531H35.5625C35.2931 28.4531 35.0348 28.5601 34.8443 28.7506C34.6539 28.9411 34.5469 29.1994 34.5469 29.4688V32.5156H32.1277L37.5938 21.5834L41.5364 29.4688L40.6406 31.2603ZM6.10938 30.4844H8.14062V32.5156H6.10938V30.4844ZM42.6719 59.9375C42.6719 60.2069 42.5649 60.4652 42.3744 60.6557C42.1839 60.8461 41.9256 60.9531 41.6562 60.9531H3.0625C2.79314 60.9531 2.53481 60.8461 2.34434 60.6557C2.15388 60.4652 2.04688 60.2069 2.04688 59.9375V35.5625C2.04688 35.2931 2.15388 35.0348 2.34434 34.8443C2.53481 34.6539 2.79314 34.5469 3.0625 34.5469H41.6562C41.9256 34.5469 42.1839 34.6539 42.3744 34.8443C42.5649 35.0348 42.6719 35.2931 42.6719 35.5625V59.9375ZM58.9219 42.6719H44.7031V40.6406H58.9219V42.6719ZM60.9531 38.6094H58.5339L48.6641 18.8585C48.5702 18.7011 48.4371 18.5708 48.2778 18.4803C48.1184 18.3898 47.9383 18.3422 47.7551 18.3422C47.5718 18.3422 47.3917 18.3898 47.2324 18.4803C47.073 18.5708 46.9399 18.7011 46.8461 18.8585L42.6719 27.1978L38.5078 18.8585C38.414 18.7011 38.2809 18.5708 38.1215 18.4803C37.9622 18.3898 37.7821 18.3422 37.5988 18.3422C37.4156 18.3422 37.2355 18.3898 37.0761 18.4803C36.9168 18.5708 36.7837 18.7011 36.6898 18.8585L30.4844 31.2603L29.3672 29.0148C29.2824 28.8452 29.1519 28.7027 28.9904 28.6034C28.8288 28.5041 28.6427 28.4521 28.4531 28.4531H24.3906V2.04688H60.9531V38.6094Z" fill="currentcolor"/>
                                    <path d="M22.3594 36.5781C20.1498 36.5781 17.9898 37.2333 16.1526 38.4609C14.3154 39.6885 12.8835 41.4333 12.0379 43.4747C11.1923 45.5161 10.9711 47.7624 11.4022 49.9295C11.8332 52.0967 12.8973 54.0873 14.4597 55.6497C16.0221 57.2121 18.0127 58.2761 20.1799 58.7072C22.347 59.1383 24.5933 58.917 26.6347 58.0715C28.6761 57.2259 30.4209 55.794 31.6485 53.9568C32.876 52.1196 33.5313 49.9596 33.5313 47.75C33.5278 44.7881 32.3496 41.9485 30.2552 39.8541C28.1609 37.7598 25.3213 36.5816 22.3594 36.5781ZM22.3594 56.8906C20.5515 56.8906 18.7843 56.3545 17.2811 55.3501C15.778 54.3458 14.6064 52.9182 13.9145 51.248C13.2227 49.5777 13.0417 47.7399 13.3944 45.9668C13.7471 44.1936 14.6176 42.5649 15.896 41.2866C17.1743 40.0083 18.803 39.1377 20.5761 38.785C22.3492 38.4323 24.1871 38.6133 25.8573 39.3052C27.5276 39.997 28.9551 41.1686 29.9595 42.6717C30.9639 44.1749 31.5 45.9422 31.5 47.75C31.4973 50.1734 30.5334 52.4968 28.8198 54.2104C27.1062 55.924 24.7828 56.8879 22.3594 56.8906Z" fill="currentcolor"/>
                                    <path d="M22.3594 40.6406C20.9533 40.6406 19.5788 41.0576 18.4096 41.8388C17.2405 42.62 16.3293 43.7303 15.7912 45.0294C15.2531 46.3284 15.1123 47.7579 15.3866 49.137C15.6609 50.5161 16.338 51.7828 17.3323 52.7771C18.3266 53.7714 19.5933 54.4485 20.9724 54.7228C22.3515 54.9971 23.7809 54.8563 25.08 54.3182C26.3791 53.7801 27.4894 52.8689 28.2706 51.6998C29.0518 50.5306 29.4688 49.1561 29.4688 47.75C29.4666 45.8651 28.7169 44.0581 27.3841 42.7253C26.0513 41.3925 24.2442 40.6428 22.3594 40.6406ZM22.3594 52.8281C21.355 52.8281 20.3732 52.5303 19.5381 51.9723C18.703 51.4143 18.0522 50.6212 17.6678 49.6933C17.2835 48.7654 17.1829 47.7444 17.3788 46.7593C17.5748 45.7742 18.0584 44.8694 18.7686 44.1592C19.4788 43.449 20.3836 42.9654 21.3687 42.7694C22.3537 42.5735 23.3748 42.6741 24.3027 43.0584C25.2306 43.4428 26.0237 44.0937 26.5817 44.9287C27.1397 45.7638 27.4375 46.7456 27.4375 47.75C27.4359 49.0963 26.9004 50.387 25.9484 51.339C24.9964 52.291 23.7057 52.8265 22.3594 52.8281Z" fill="currentcolor"/>
                                    <path d="M30.4844 16.2645H40.6406C41.7181 16.2645 42.7514 15.8365 43.5132 15.0746C44.2751 14.3127 44.7031 13.2794 44.7031 12.202C44.7031 11.1245 44.2751 10.0912 43.5132 9.32935C42.7514 8.56748 41.7181 8.13947 40.6406 8.13947C40.6061 8.13947 40.5736 8.14861 40.5391 8.14962C40.306 7.00167 39.6832 5.96961 38.7762 5.2283C37.8692 4.48699 36.7339 4.08203 35.5625 4.08203C34.3911 4.08203 33.2558 4.48699 32.3488 5.2283C31.4418 5.96961 30.819 7.00167 30.5859 8.14962C30.5514 8.14962 30.5189 8.13947 30.4844 8.13947C29.4069 8.13947 28.3736 8.56748 27.6118 9.32935C26.8499 10.0912 26.4219 11.1245 26.4219 12.202C26.4219 13.2794 26.8499 14.3127 27.6118 15.0746C28.3736 15.8365 29.4069 16.2645 30.4844 16.2645ZM30.4844 10.1707C31.0231 10.1707 31.5398 10.3847 31.9207 10.7657C32.3016 11.1466 32.5156 11.6632 32.5156 12.202H34.5469C34.5447 11.5002 34.3603 10.811 34.0117 10.202C33.6631 9.59289 33.1623 9.08482 32.5583 8.72751C32.6584 8.00185 33.0177 7.33693 33.57 6.85564C34.1222 6.37434 34.83 6.10919 35.5625 6.10919C36.295 6.10919 37.0028 6.37434 37.555 6.85564C38.1073 7.33693 38.4666 8.00185 38.5667 8.72751C37.9627 9.08482 37.4619 9.59289 37.1133 10.202C36.7647 10.811 36.5803 11.5002 36.5781 12.202H38.6094C38.6094 11.8002 38.7285 11.4075 38.9517 11.0735C39.1749 10.7394 39.4921 10.4791 39.8633 10.3253C40.2345 10.1716 40.6429 10.1314 41.0369 10.2097C41.4309 10.2881 41.7929 10.4816 42.0769 10.7657C42.361 11.0497 42.5545 11.4117 42.6328 11.8057C42.7112 12.1997 42.671 12.6081 42.5173 12.9793C42.3635 13.3505 42.1032 13.6677 41.7691 13.8909C41.4351 14.1141 41.0424 14.2332 40.6406 14.2332H30.4844C29.9457 14.2332 29.429 14.0192 29.0481 13.6383C28.6671 13.2573 28.4531 12.7407 28.4531 12.202C28.4531 11.6632 28.6671 11.1466 29.0481 10.7657C29.429 10.3847 29.9457 10.1707 30.4844 10.1707Z" fill="currentcolor"/>
                                    <path d="M49.7812 12.2031C50.5847 12.2031 51.3702 11.9649 52.0383 11.5185C52.7063 11.0721 53.227 10.4376 53.5345 9.69528C53.842 8.95295 53.9224 8.13612 53.7657 7.34807C53.6089 6.56002 53.222 5.83616 52.6539 5.26801C52.0857 4.69985 51.3619 4.31294 50.5738 4.15619C49.7858 3.99943 48.9689 4.07989 48.2266 4.38737C47.4843 4.69485 46.8498 5.21555 46.4034 5.88362C45.957 6.5517 45.7188 7.33714 45.7188 8.14063C45.7188 9.21807 46.1468 10.2514 46.9086 11.0132C47.6705 11.7751 48.7038 12.2031 49.7812 12.2031ZM49.7812 6.10938C50.183 6.10938 50.5757 6.22851 50.9098 6.4517C51.2438 6.6749 51.5041 6.99214 51.6579 7.3633C51.8116 7.73446 51.8518 8.14288 51.7735 8.5369C51.6951 8.93093 51.5016 9.29286 51.2176 9.57694C50.9335 9.86101 50.5716 10.0545 50.1775 10.1328C49.7835 10.2112 49.3751 10.171 49.0039 10.0173C48.6328 9.86352 48.3155 9.60317 48.0923 9.26913C47.8691 8.93509 47.75 8.54237 47.75 8.14063C47.75 7.60191 47.964 7.08525 48.3449 6.70432C48.7259 6.32338 49.2425 6.10938 49.7812 6.10938Z" fill="currentcolor"/>
                                 </svg>