<svg width="45" height="46" viewBox="0 0 45 46" fill="none" xmlns="http://www.w3.org/2000/svg">
                              <path d="M44.1822 41.5112L38.3969 22.8692C38.2207 22.2949 37.8645 21.7924 37.3808 21.4361C36.8972 21.0798 36.3117 20.8885 35.7109 20.8906H31.8219C33.5221 18.6701 34.4462 15.9529 34.4523 13.1562C34.4523 9.98608 33.193 6.94576 30.9513 4.70411C28.7097 2.46247 25.6694 1.20313 22.4992 1.20312C19.329 1.20313 16.2887 2.46247 14.0471 4.70411C11.8054 6.94576 10.5461 9.98608 10.5461 13.1562C10.5522 15.9529 11.4763 18.6701 13.1765 20.8906H9.28747C8.68672 20.8885 8.10123 21.0798 7.61755 21.4361C7.13386 21.7924 6.77764 22.2949 6.60154 22.8692L0.816222 41.5112C0.697777 41.8905 0.670308 42.2924 0.736037 42.6843C0.801767 43.0762 0.958849 43.4472 1.19457 43.7671C1.43029 44.087 1.73803 44.347 2.09287 44.5259C2.44771 44.7048 2.83969 44.7976 3.23708 44.7969H41.7648C42.1622 44.7976 42.5542 44.7048 42.909 44.5259C43.2639 44.347 43.5716 44.087 43.8073 43.7671C44.043 43.4472 44.2001 43.0762 44.2659 42.6843C44.3316 42.2924 44.3041 41.8905 44.1857 41.5112H44.1822ZM22.4992 2.60938C25.2954 2.61254 27.9762 3.72474 29.9535 5.70198C31.9307 7.67921 33.0429 10.36 33.0461 13.1562C33.0429 15.7271 32.1682 18.2209 30.5647 20.2304L22.4992 30.3125L14.4336 20.2304C12.8302 18.2209 11.9555 15.7271 11.9523 13.1562C11.9555 10.36 13.0677 7.67921 15.0449 5.70198C17.0222 3.72474 19.703 2.61254 22.4992 2.60938ZM21.9501 31.8763C22.0159 31.9586 22.0995 32.0251 22.1945 32.0708C22.2896 32.1165 22.3937 32.1403 22.4992 32.1403C22.6047 32.1403 22.7088 32.1165 22.8038 32.0708C22.8989 32.0251 22.9825 31.9586 23.0483 31.8763L25.9508 28.2481C28.8625 28.8268 30.9367 30.1374 30.9367 31.4375C30.9367 33.1004 27.4717 34.9531 22.4992 34.9531C17.5267 34.9531 14.0617 33.1004 14.0617 31.4375C14.0617 30.1374 16.1359 28.8268 19.0476 28.2481L21.9501 31.8763ZM41.7648 43.3906H3.23708C3.06027 43.3905 2.88597 43.3489 2.72819 43.2691C2.57042 43.1892 2.43359 43.0735 2.32873 42.9312C2.22386 42.7888 2.15389 42.6238 2.12444 42.4495C2.09499 42.2751 2.1069 42.0963 2.15919 41.9274L7.9445 23.2862C8.03251 22.999 8.2106 22.7477 8.45246 22.5695C8.69431 22.3914 8.98708 22.2958 9.28747 22.2969H14.2867L15.9742 24.4062H9.84294V25.8125H17.0992L18.0695 27.0254C14.7465 27.8354 12.6554 29.5053 12.6554 31.4375C12.6554 34.1973 16.979 36.3594 22.4992 36.3594C28.0194 36.3594 32.3429 34.1973 32.3429 31.4375C32.3429 29.5053 30.2518 27.8354 26.9289 27.0254L27.8992 25.8125H35.1554V24.4062H29.0242L30.7117 22.2969H35.7109C36.0113 22.2958 36.3041 22.3914 36.5459 22.5695C36.7878 22.7477 36.9659 22.999 37.0539 23.2862L42.8392 41.9274C42.8914 42.096 42.9034 42.2745 42.8741 42.4486C42.8448 42.6227 42.7752 42.7875 42.6707 42.9297C42.5662 43.072 42.4299 43.1878 42.2725 43.2679C42.1152 43.3479 41.9413 43.3899 41.7648 43.3906Z" fill="currentcolor"/>
                              <path d="M22.5 22.2969C24.3078 22.2969 26.0751 21.7608 27.5783 20.7564C29.0814 19.752 30.253 18.3245 30.9448 16.6542C31.6367 14.984 31.8177 13.1461 31.465 11.373C31.1123 9.5999 30.2417 7.9712 28.9634 6.69286C27.6851 5.41452 26.0564 4.54396 24.2832 4.19126C22.5101 3.83857 20.6723 4.01959 19.002 4.71142C17.3318 5.40325 15.9042 6.57483 14.8998 8.078C13.8955 9.58116 13.3594 11.3484 13.3594 13.1563C13.3622 15.5796 14.3261 17.903 16.0397 19.6166C17.7533 21.3302 20.0766 22.2941 22.5 22.2969ZM30.2344 13.1563C30.2361 14.9535 29.6091 16.6947 28.4618 18.0781H26.7188C26.5323 18.0781 26.3534 18.0041 26.2216 17.8722C26.0897 17.7403 26.0156 17.5615 26.0156 17.375C26.0156 16.8156 25.7934 16.279 25.3978 15.8835C25.0022 15.4879 24.4657 15.2656 23.9062 15.2656H21.7969C21.6104 15.2656 21.4316 15.1916 21.2997 15.0597C21.1678 14.9278 21.0938 14.749 21.0938 14.5625C21.0938 14.376 21.1678 14.1972 21.2997 14.0653C21.4316 13.9335 21.6104 13.8594 21.7969 13.8594H23.9062C24.4657 13.8594 25.0022 13.6371 25.3978 13.2416C25.7934 12.846 26.0156 12.3094 26.0156 11.75C26.0156 11.1906 25.7934 10.654 25.3978 10.2585C25.0022 9.86287 24.4657 9.64063 23.9062 9.64063C23.7198 9.64063 23.5409 9.56655 23.4091 9.43469C23.2772 9.30283 23.2031 9.12398 23.2031 8.9375C23.2031 8.75102 23.2772 8.57218 23.4091 8.44032C23.5409 8.30846 23.7198 8.23438 23.9062 8.23438H28.4618C29.6091 9.6178 30.2361 11.359 30.2344 13.1563ZM26.9332 6.82813H23.9062C23.3468 6.82813 22.8103 7.05037 22.4147 7.44595C22.0191 7.84154 21.7969 8.37806 21.7969 8.9375C21.7969 9.49695 22.0191 10.0335 22.4147 10.4291C22.8103 10.8246 23.3468 11.0469 23.9062 11.0469C24.0927 11.0469 24.2716 11.121 24.4034 11.2528C24.5353 11.3847 24.6094 11.5635 24.6094 11.75C24.6094 11.9365 24.5353 12.1153 24.4034 12.2472C24.2716 12.3791 24.0927 12.4531 23.9062 12.4531H21.7969C21.2374 12.4531 20.7009 12.6754 20.3053 13.071C19.9097 13.4665 19.6875 14.0031 19.6875 14.5625C19.6875 15.1219 19.9097 15.6585 20.3053 16.0541C20.7009 16.4496 21.2374 16.6719 21.7969 16.6719H23.9062C24.0927 16.6719 24.2716 16.746 24.4034 16.8778C24.5353 17.0097 24.6094 17.1885 24.6094 17.375C24.6094 17.9344 24.8316 18.471 25.2272 18.8666C25.6228 19.2621 26.1593 19.4844 26.7188 19.4844H26.9297C25.963 20.164 24.8531 20.6123 23.6856 20.7948C22.5182 20.9773 21.3244 20.8891 20.1964 20.537C19.0685 20.1849 18.0365 19.5783 17.1802 18.764C16.3239 17.9498 15.6662 16.9496 15.2578 15.8408C15.923 15.6575 16.5099 15.2614 16.9289 14.7132C17.3479 14.165 17.5759 13.4947 17.5781 12.8047C17.5781 12.7115 17.6152 12.622 17.6811 12.5561C17.747 12.4902 17.8364 12.4531 17.9297 12.4531C18.5824 12.4531 19.2083 12.1939 19.6698 11.7323C20.1313 11.2708 20.3906 10.6449 20.3906 9.99219C20.3906 9.33951 20.1313 8.71356 19.6698 8.25205C19.2083 7.79053 18.5824 7.53125 17.9297 7.53125H17.2083C18.4983 6.30835 20.1722 5.57003 21.9451 5.44185C23.718 5.31366 25.4806 5.80352 26.9332 6.82813ZM16.0256 8.9375H17.9297C18.2094 8.9375 18.4777 9.04862 18.6755 9.24642C18.8733 9.44421 18.9844 9.71247 18.9844 9.99219C18.9844 10.2719 18.8733 10.5402 18.6755 10.738C18.4777 10.9358 18.2094 11.0469 17.9297 11.0469C17.4635 11.0469 17.0164 11.2321 16.6867 11.5617C16.3571 11.8914 16.1719 12.3385 16.1719 12.8047C16.1708 13.1873 16.0449 13.5591 15.8133 13.8637C15.5817 14.1682 15.2571 14.3889 14.8887 14.4922C14.5363 12.5633 14.9437 10.5728 16.0256 8.9375Z" fill="currentcolor"/>
                              <path d="M38.6719 40.5781H6.32812V41.9844H38.6719V40.5781Z" fill="currentcolor"/>
                              <path d="M34.4531 37.7656H10.5469V39.1719H34.4531V37.7656Z" fill="currentcolor"/>
                           </svg>