<svg width="65" height="65" viewBox="0 0 65 65" fill="none" xmlns="http://www.w3.org/2000/svg">
                                    <path d="M60.9375 1.01562H4.0625C3.25442 1.01563 2.47943 1.33663 1.90803 1.90803C1.33663 2.47943 1.01563 3.25442 1.01562 4.0625V60.9375C1.01563 61.7456 1.33663 62.5206 1.90803 63.092C2.47943 63.6634 3.25442 63.9844 4.0625 63.9844H60.9375C61.7456 63.9844 62.5206 63.6634 63.092 63.092C63.6634 62.5206 63.9844 61.7456 63.9844 60.9375V4.0625C63.9844 3.25442 63.6634 2.47943 63.092 1.90803C62.5206 1.33663 61.7456 1.01563 60.9375 1.01562ZM4.0625 3.04688H60.9375C61.2069 3.04688 61.4652 3.15388 61.6557 3.34434C61.8461 3.53481 61.9531 3.79314 61.9531 4.0625V11.1719H3.04688V4.0625C3.04688 3.79314 3.15388 3.53481 3.34434 3.34434C3.53481 3.15388 3.79314 3.04688 4.0625 3.04688ZM60.9375 61.9531H4.0625C3.79314 61.9531 3.53481 61.8461 3.34434 61.6557C3.15388 61.4652 3.04688 61.2069 3.04688 60.9375V13.2031H61.9531V60.9375C61.9531 61.2069 61.8461 61.4652 61.6557 61.6557C61.4652 61.8461 61.2069 61.9531 60.9375 61.9531Z" fill="currentcolor"/>
                                    <path d="M7.10938 9.14062C8.2312 9.14062 9.14062 8.2312 9.14062 7.10938C9.14062 5.98755 8.2312 5.07812 7.10938 5.07812C5.98755 5.07812 5.07812 5.98755 5.07812 7.10938C5.07812 8.2312 5.98755 9.14062 7.10938 9.14062Z" fill="currentcolor"/>
                                    <path d="M15.2344 9.14062C16.3562 9.14062 17.2656 8.2312 17.2656 7.10938C17.2656 5.98755 16.3562 5.07812 15.2344 5.07812C14.1125 5.07812 13.2031 5.98755 13.2031 7.10938C13.2031 8.2312 14.1125 9.14062 15.2344 9.14062Z" fill="currentcolor"/>
                                    <path d="M23.3594 9.14062C24.4812 9.14062 25.3906 8.2312 25.3906 7.10938C25.3906 5.98755 24.4812 5.07812 23.3594 5.07812C22.2375 5.07812 21.3281 5.98755 21.3281 7.10938C21.3281 8.2312 22.2375 9.14062 23.3594 9.14062Z" fill="currentcolor"/>
                                    <path d="M32.5 37.5781C34.7096 37.5781 36.8696 36.9229 38.7068 35.6953C40.544 34.4677 41.9759 32.7229 42.8215 30.6815C43.667 28.6402 43.8883 26.3939 43.4572 24.2267C43.0261 22.0596 41.9621 20.069 40.3997 18.5065C38.8373 16.9441 36.8467 15.8801 34.6795 15.449C32.5124 15.018 30.2661 15.2392 28.2247 16.0848C26.1833 16.9304 24.4385 18.3623 23.2109 20.1995C21.9833 22.0367 21.3281 24.1967 21.3281 26.4063C21.3316 29.3681 22.5098 32.2077 24.6042 34.3021C26.6985 36.3965 29.5381 37.5746 32.5 37.5781ZM32.5 35.5469C30.6178 35.5437 28.7823 34.9599 27.2441 33.8752C25.7058 32.7904 24.5397 31.2576 23.9048 29.4856C25.1579 29.3728 26.4089 29.7225 27.4219 30.4688L28.2344 31.0781C29.465 32.0011 30.9617 32.5 32.5 32.5C34.0383 32.5 35.535 32.0011 36.7656 31.0781L37.5781 30.4688C38.5914 29.7241 39.8416 29.3745 41.0942 29.4856C40.4593 31.2574 39.2934 32.7902 37.7553 33.8749C36.2173 34.9596 34.3821 35.5435 32.5 35.5469ZM35.9673 24.375L34.4297 22.8323C35.0364 22.5158 35.7097 22.3484 36.3939 22.3438C36.9581 22.3421 37.517 22.4524 38.0382 22.6682C38.5595 22.884 39.0328 23.2011 39.4306 23.6011L40.2045 24.375H35.9673ZM32.3212 23.6011L33.0952 24.375H25.2393L26.6002 23.2852C27.3629 22.677 28.3091 22.3452 29.2845 22.3438C29.8487 22.3421 30.4076 22.4524 30.9289 22.6682C31.4501 22.884 31.9234 23.2011 32.3212 23.6011ZM23.3594 26.4063H41.6406C41.6387 26.772 41.6146 27.1373 41.5685 27.5001C39.7239 27.2601 37.8578 27.7415 36.3594 28.8438L35.5469 29.4531C34.6595 30.0923 33.5936 30.4362 32.5 30.4362C31.4064 30.4362 30.3405 30.0923 29.4531 29.4531L28.6406 28.8438C27.1422 27.7415 25.2761 27.2601 23.4315 27.5001C23.3854 27.1373 23.3613 26.772 23.3594 26.4063ZM32.5 17.2656C34.0693 17.2681 35.6115 17.6746 36.9781 18.4458C38.3448 19.2171 39.4898 20.3273 40.303 21.6694C39.2528 20.8353 37.9623 20.3609 36.6219 20.3161C35.2814 20.2713 33.9621 20.6585 32.8585 21.4206C31.8076 20.6963 30.5608 20.3098 29.2845 20.3125C27.8483 20.3145 26.455 20.8028 25.3317 21.6978L24.1973 22.6058C24.9255 21.0148 26.0947 19.666 27.5664 18.7194C29.038 17.7729 30.7502 17.2684 32.5 17.2656Z" fill="currentcolor"/>
                                    <path d="M58.9062 39.6094H6.09375C5.82439 39.6094 5.56606 39.7164 5.37559 39.9068C5.18513 40.0973 5.07812 40.3556 5.07812 40.625V44.6875C5.07812 44.9569 5.18513 45.2152 5.37559 45.4057C5.56606 45.5961 5.82439 45.7031 6.09375 45.7031H58.9062C59.1756 45.7031 59.4339 45.5961 59.6244 45.4057C59.8149 45.2152 59.9219 44.9569 59.9219 44.6875V40.625C59.9219 40.3556 59.8149 40.0973 59.6244 39.9068C59.4339 39.7164 59.1756 39.6094 58.9062 39.6094ZM57.8906 43.6719H7.10938V41.6406H57.8906V43.6719Z" fill="currentcolor"/>
                                    <path d="M18.2812 47.7344H6.09375C5.82439 47.7344 5.56606 47.8414 5.37559 48.0318C5.18513 48.2223 5.07812 48.4806 5.07812 48.75V54.8438C5.07812 55.1131 5.18513 55.3714 5.37559 55.5619C5.56606 55.7524 5.82439 55.8594 6.09375 55.8594H18.2812C18.5506 55.8594 18.8089 55.7524 18.9994 55.5619C19.1899 55.3714 19.2969 55.1131 19.2969 54.8438V48.75C19.2969 48.4806 19.1899 48.2223 18.9994 48.0318C18.8089 47.8414 18.5506 47.7344 18.2812 47.7344ZM17.2656 53.8281H7.10938V49.7656H17.2656V53.8281Z" fill="currentcolor"/>
                                    <path d="M38.5938 47.7344H26.4062C26.1369 47.7344 25.8786 47.8414 25.6881 48.0318C25.4976 48.2223 25.3906 48.4806 25.3906 48.75V54.8438C25.3906 55.1131 25.4976 55.3714 25.6881 55.5619C25.8786 55.7524 26.1369 55.8594 26.4062 55.8594H38.5938C38.8631 55.8594 39.1214 55.7524 39.3119 55.5619C39.5024 55.3714 39.6094 55.1131 39.6094 54.8438V48.75C39.6094 48.4806 39.5024 48.2223 39.3119 48.0318C39.1214 47.8414 38.8631 47.7344 38.5938 47.7344ZM37.5781 53.8281H27.4219V49.7656H37.5781V53.8281Z" fill="currentcolor"/>
                                    <path d="M58.9062 47.7344H46.7188C46.4494 47.7344 46.1911 47.8414 46.0006 48.0318C45.8101 48.2223 45.7031 48.4806 45.7031 48.75V54.8438C45.7031 55.1131 45.8101 55.3714 46.0006 55.5619C46.1911 55.7524 46.4494 55.8594 46.7188 55.8594H58.9062C59.1756 55.8594 59.4339 55.7524 59.6244 55.5619C59.8149 55.3714 59.9219 55.1131 59.9219 54.8438V48.75C59.9219 48.4806 59.8149 48.2223 59.6244 48.0318C59.4339 47.8414 59.1756 47.7344 58.9062 47.7344ZM57.8906 53.8281H47.7344V49.7656H57.8906V53.8281Z" fill="currentcolor"/>
                                    <path d="M7.10938 57.8906H17.2656V59.9219H7.10938V57.8906Z" fill="currentcolor"/>
                                    <path d="M27.4219 57.8906H37.5781V59.9219H27.4219V57.8906Z" fill="currentcolor"/>
                                    <path d="M47.7344 57.8906H57.8906V59.9219H47.7344V57.8906Z" fill="currentcolor"/>
                                    <path d="M39.6094 6.09375H59.9219V8.125H39.6094V6.09375Z" fill="currentcolor"/>
                                 </svg>