<svg width="45" height="46" viewBox="0 0 45 46" fill="none" xmlns="http://www.w3.org/2000/svg">
                              <path d="M22.5 10.3438C23.2767 10.3438 23.9062 9.71415 23.9062 8.9375C23.9062 8.16085 23.2767 7.53125 22.5 7.53125C21.7233 7.53125 21.0938 8.16085 21.0938 8.9375C21.0938 9.71415 21.7233 10.3438 22.5 10.3438Z" fill="currentcolor"/>
                              <path d="M36.5622 15.2641C36.5658 11.6422 35.1718 8.15847 32.6706 5.53884C30.1693 2.91922 26.7538 1.36568 23.1356 1.2019C19.5173 1.03812 15.9754 2.27672 13.2477 4.65966C10.5201 7.0426 8.81702 10.3861 8.49341 13.9936C8.30733 15.9612 8.54284 17.9459 9.18421 19.8154C9.82559 21.6848 10.8581 23.3961 12.2129 24.835C13.7503 26.4793 14.6483 28.6196 14.7442 30.8686C14.3365 31.0156 13.9843 31.2853 13.7361 31.6406C13.4879 31.9959 13.3559 32.4194 13.3582 32.8528C13.3605 33.2863 13.497 33.7083 13.749 34.061C14.001 34.4137 14.356 34.6796 14.7653 34.8222V38.4672C14.7653 39.0267 14.9875 39.5632 15.3831 39.9588C15.7787 40.3544 16.3152 40.5766 16.8747 40.5766H18.2809C18.2809 41.6955 18.7254 42.7685 19.5165 43.5597C20.3077 44.3509 21.3808 44.7954 22.4997 44.7954C23.6185 44.7954 24.6916 44.3509 25.4828 43.5597C26.2739 42.7685 26.7184 41.6955 26.7184 40.5766H28.1247C28.6841 40.5766 29.2206 40.3544 29.6162 39.9588C30.0118 39.5632 30.234 39.0267 30.234 38.4672V34.8222C30.643 34.6793 30.9977 34.4132 31.2494 34.0606C31.5011 33.708 31.6374 33.2861 31.6397 32.8528C31.642 32.4196 31.5102 31.9963 31.2623 31.641C31.0144 31.2857 30.6625 31.0159 30.2551 30.8686C30.3892 28.5736 31.3223 26.398 32.8925 24.719C35.2551 22.1372 36.5644 18.7638 36.5622 15.2641ZM28.8278 34.9516V36.3579H16.1715V34.9516H28.8278ZM22.4997 43.3891C21.7537 43.3891 21.0384 43.0928 20.5109 42.5653C19.9835 42.0379 19.6872 41.3225 19.6872 40.5766H25.3122C25.3122 41.3225 25.0158 42.0379 24.4884 42.5653C23.9609 43.0928 23.2456 43.3891 22.4997 43.3891ZM28.1247 39.1704H16.8747C16.6882 39.1704 16.5093 39.0963 16.3775 38.9644C16.2456 38.8326 16.1715 38.6537 16.1715 38.4672V37.7641H28.8278V38.4672C28.8278 38.6537 28.7537 38.8326 28.6218 38.9644C28.49 39.0963 28.3111 39.1704 28.1247 39.1704ZM29.5309 33.5454H15.4684C15.2819 33.5454 15.1031 33.4713 14.9712 33.3394C14.8394 33.2076 14.7653 33.0287 14.7653 32.8422C14.7653 32.6558 14.8394 32.4769 14.9712 32.345C15.1031 32.2132 15.2819 32.1391 15.4684 32.1391H29.5309C29.7174 32.1391 29.8962 32.2132 30.0281 32.345C30.16 32.4769 30.234 32.6558 30.234 32.8422C30.234 33.0287 30.16 33.2076 30.0281 33.3394C29.8962 33.4713 29.7174 33.5454 29.5309 33.5454ZM22.6663 13.8579H14.1465L15.9402 12.5768C16.7464 12.0199 17.7111 11.7388 18.6901 11.7755C19.6692 11.8121 20.6102 12.1645 21.3725 12.78L22.6663 13.8579ZM24.8636 13.8579L23.8089 12.9811L24.3714 12.5768C25.1775 12.0199 26.1422 11.7388 27.1213 11.7755C28.1004 11.8121 29.0414 12.1645 29.8037 12.78L31.1045 13.8579H24.8636ZM30.7107 11.7C29.7163 10.8707 28.4749 10.3946 27.1809 10.3463C25.887 10.2979 24.6135 10.68 23.56 11.4328L22.6951 12.0508L22.2732 11.6993C21.2789 10.8701 20.0376 10.394 18.7438 10.3457C17.45 10.2973 16.1766 10.6794 15.1232 11.4321L13.8456 12.3461C14.4432 10.5679 15.5741 9.017 17.0844 7.90437C18.5948 6.79174 20.4113 6.17144 22.2867 6.12788C24.1621 6.08431 26.0055 6.61959 27.5659 7.66089C29.1263 8.70218 30.328 10.1989 31.0075 11.9475L30.7107 11.7ZM31.6403 15.2641C31.6398 16.9893 31.1476 18.6785 30.2214 20.134C29.7372 20.0537 29.2755 19.8721 28.8665 19.601C28.0641 19.065 27.1208 18.7792 26.1559 18.7797H25.8747C24.9091 18.7788 23.9649 19.0646 23.162 19.601C22.5913 19.9823 21.9204 20.1858 21.234 20.186H20.9528C20.265 20.1867 19.5925 19.9831 19.0206 19.601C18.2189 19.0654 17.2763 18.7796 16.3122 18.7797H16.0309C15.4129 18.7816 14.8009 18.9009 14.2274 19.1313C13.6564 17.922 13.3599 16.6014 13.359 15.2641H31.6403ZM16.0309 20.186H16.3122C16.9999 20.1853 17.6724 20.3889 18.2443 20.771C19.0461 21.3066 19.9886 21.5924 20.9528 21.5922H21.234C22.1996 21.5932 23.1438 21.3074 23.9467 20.771C24.5174 20.3897 25.1883 20.1861 25.8747 20.186H26.1559C26.8437 20.1853 27.5162 20.3889 28.0881 20.771C28.4629 21.0201 28.8704 21.2162 29.2989 21.3539C28.374 22.3915 27.2241 23.2039 25.9371 23.729C24.6501 24.2541 23.2601 24.478 21.8733 24.3836C20.4865 24.2891 19.1397 23.8789 17.9357 23.1841C16.7318 22.4894 15.7027 21.5286 14.927 20.3751C15.2823 20.2527 15.6551 20.1888 16.0309 20.186ZM22.4997 25.811C23.0037 25.807 23.5068 25.7668 24.005 25.6907C23.6016 26.3736 23.3444 27.1329 23.2499 27.9204H21.7494C21.6549 27.1329 21.3978 26.3736 20.9943 25.6907C21.4925 25.7668 21.9956 25.807 22.4997 25.811ZM24.609 29.3266C24.7955 29.3266 24.9744 29.4007 25.1062 29.5325C25.2381 29.6644 25.3122 29.8433 25.3122 30.0297V30.7329H19.6872V30.0297C19.6872 29.8433 19.7612 29.6644 19.8931 29.5325C20.025 29.4007 20.2038 29.3266 20.3903 29.3266H24.609ZM28.8425 30.7329H26.7184V30.0297C26.717 29.4816 26.5022 28.9555 26.1197 28.563C25.7371 28.1704 25.2167 27.9422 24.6688 27.9267C24.8122 27.0149 25.2413 26.1722 25.8943 25.5199L26.3366 25.0776C28.6267 24.1832 30.5323 22.5169 31.7242 20.3666C32.9161 18.2164 33.3193 15.7173 32.8643 13.3012C32.4092 10.8852 31.1244 8.70407 29.2319 7.13476C27.3394 5.56545 24.9582 4.70658 22.4997 4.70658C20.0411 4.70658 17.6599 5.56545 15.7674 7.13476C13.8749 8.70407 12.5901 10.8852 12.135 13.3012C11.68 15.7173 12.0832 18.2164 13.2751 20.3666C14.467 22.5169 16.3727 24.1832 18.6627 25.0776L19.105 25.5199C19.758 26.1722 20.1871 27.0149 20.3305 27.9267C19.7826 27.9422 19.2622 28.1704 18.8797 28.563C18.4971 28.9555 18.2823 29.4816 18.2809 30.0297V30.7329H16.1575C16.0273 28.1739 14.9938 25.7441 13.2409 23.8753C11.6441 22.1633 10.5538 20.0417 10.0917 17.7467C9.62953 15.4517 9.8136 13.0734 10.6234 10.8768C11.4332 8.68027 12.8369 6.75165 14.6782 5.30583C16.5195 3.86 18.726 2.95375 21.0519 2.68802C22.8285 2.47702 24.6297 2.64836 26.3346 3.19056C28.0395 3.73276 29.6088 4.63327 30.9372 5.83169C32.1828 6.94482 33.1953 8.29389 33.9162 9.80085C34.6371 11.3078 35.0521 12.9427 35.1371 14.6111C35.2221 16.2795 34.9755 17.9481 34.4114 19.5205C33.8474 21.093 32.9772 22.5379 31.8512 23.7719C30.074 25.6748 29.0109 28.1346 28.8425 30.7329Z" fill="currentcolor"/>
                           </svg>