<svg width="24" height="25" viewBox="0 0 24 25" fill="none" xmlns="http://www.w3.org/2000/svg">
                                                <g clip-path="url(#clip0_7876_199)">
                                                  <path d="M12 0.5C5.38317 0.5 0 5.88317 0 12.5C0 19.1168 5.38317 24.5 12 24.5C18.6168 24.5 24 19.1168 24 12.5C24 5.88317 18.6168 0.5 12 0.5ZM12 23.375C6.00352 23.375 1.125 18.4965 1.125 12.5C1.125 6.50352 6.00352 1.625 12 1.625C17.9965 1.625 22.875 6.50352 22.875 12.5C22.875 18.4965 17.9965 23.375 12 23.375ZM12 5.25781C8.9843 5.25781 6.53081 7.71125 6.53081 10.727C6.53081 12.9733 9.21919 16.6123 11.5612 19.5317C11.6139 19.5974 11.6807 19.6504 11.7567 19.6869C11.8326 19.7233 11.9158 19.7422 12 19.7422C12.0842 19.7422 12.1674 19.7233 12.2433 19.6869C12.3193 19.6504 12.3861 19.5974 12.4387 19.5317L12.5113 19.4412C14.963 16.3867 17.4692 12.9627 17.4692 10.727C17.4692 7.71125 15.0157 5.25781 12 5.25781ZM12.0005 18.2791C10.5493 16.4497 7.65581 12.6446 7.65581 10.727C7.65581 8.33159 9.60459 6.38281 12 6.38281C14.3954 6.38281 16.3442 8.33159 16.3442 10.727C16.3442 12.6885 13.473 16.4306 12.0005 18.2791ZM12 7.39241C10.1613 7.39241 8.66541 8.88828 8.66541 10.727C8.66541 12.5657 10.1613 14.0616 12 14.0616C13.8387 14.0616 15.3346 12.5657 15.3346 10.727C15.3346 8.88828 13.8387 7.39241 12 7.39241ZM12 12.9365C10.7816 12.9365 9.79041 11.9453 9.79041 10.727C9.79041 9.50858 10.7816 8.51736 12 8.51736C13.2184 8.51736 14.2096 9.50858 14.2096 10.727C14.2096 11.9453 13.2184 12.9365 12 12.9365Z" fill="currentcolor"/>
                                                </g>
                                                <defs>
                                                  <clipPath id="clip0_7876_199">
                                                    <rect width="24" height="24" fill="white" transform="translate(0 0.5)"/>
                                                  </clipPath>
                                                </defs>
                                              </svg>