<svg width="45" height="46" viewBox="0 0 45 46" fill="none" xmlns="http://www.w3.org/2000/svg">
                              <path d="M42.1877 29.3281H36.3265C38.3303 25.6805 39.08 21.4754 38.4601 17.3599C37.8402 13.2445 35.8852 9.44681 32.8958 6.55123C29.9063 3.65565 26.0482 1.82265 21.9151 1.3343C17.782 0.845946 13.603 1.7293 10.021 3.84843C6.4391 5.96757 3.65278 9.20504 2.09083 13.0627C0.528884 16.9203 0.277872 21.1843 1.37642 25.1986C2.47497 29.2128 4.8622 32.7549 8.17076 35.2796C11.4793 37.8044 15.5259 39.1719 19.6877 39.1719C20.3927 39.1673 21.0969 39.1238 21.7971 39.0418V42.6875C21.7971 43.247 22.0193 43.7835 22.4149 44.1791C22.8105 44.5747 23.347 44.7969 23.9065 44.7969H42.1877C42.7472 44.7969 43.2837 44.5747 43.6793 44.1791C44.0749 43.7835 44.2971 43.247 44.2971 42.6875V31.4375C44.2971 30.8781 44.0749 30.3416 43.6793 29.946C43.2837 29.5504 42.7472 29.3281 42.1877 29.3281ZM37.2659 20.1875H36.2112C35.5585 20.1875 34.9325 19.9282 34.471 19.4667C34.0095 19.0052 33.7502 18.3793 33.7502 17.7266C33.7489 16.7013 33.3411 15.7185 32.6161 14.9935C31.8912 14.2686 30.9083 13.8607 29.883 13.8594C29.6033 13.8594 29.3351 13.7483 29.1373 13.5505C28.9395 13.3527 28.8284 13.0844 28.8284 12.8047C28.8284 12.152 28.5691 11.5261 28.1076 11.0646C27.646 10.6031 27.0201 10.3438 26.3674 10.3438H24.9612C24.6814 10.3438 24.4132 10.2327 24.2154 10.0349C24.0176 9.83707 23.9065 9.56881 23.9065 9.28909C23.9065 9.00937 24.0176 8.7411 24.2154 8.54331C24.4132 8.34552 24.6814 8.2344 24.9612 8.2344H32.5605C35.5868 11.4787 37.2686 15.7509 37.2659 20.1875ZM9.84398 5.63284C12.5496 3.79538 15.7165 2.75396 18.9846 2.62698V10.3438C18.9857 11.4623 19.4306 12.5347 20.2215 13.3256C21.0124 14.1166 22.0848 14.5614 23.2034 14.5625C23.5763 14.5625 23.934 14.7107 24.1977 14.9744C24.4614 15.2381 24.6096 15.5958 24.6096 15.9688C24.6096 16.3417 24.4614 16.6994 24.1977 16.9631C23.934 17.2269 23.5763 17.375 23.2034 17.375H18.2815C17.5356 17.375 16.8202 17.0787 16.2927 16.5513C15.7653 16.0238 15.469 15.3084 15.469 14.5625C15.4679 13.444 15.023 12.3716 14.2321 11.5807C13.4412 10.7897 12.3688 10.3449 11.2502 10.3438C10.8773 10.3438 10.5196 10.1956 10.2559 9.93189C9.99214 9.66817 9.84398 9.31049 9.84398 8.93753V5.63284ZM2.1096 20.1875C2.11005 19.2454 2.18623 18.3049 2.33742 17.375H9.84398C10.2169 17.375 10.5746 17.5232 10.8383 17.7869C11.1021 18.0506 11.2502 18.4083 11.2502 18.7813C11.2502 19.5272 11.5465 20.2426 12.074 20.77C12.6014 21.2975 13.3168 21.5938 14.0627 21.5938H20.0393C20.5055 21.5938 20.9526 21.779 21.2822 22.1086C21.6119 22.4383 21.7971 22.8854 21.7971 23.3516C21.7971 23.8178 21.6119 24.2649 21.2822 24.5945C20.9526 24.9242 20.5055 25.1094 20.0393 25.1094H16.5237C15.871 25.1094 15.245 25.3687 14.7835 25.8302C14.322 26.2917 14.0627 26.9177 14.0627 27.5703C14.0627 28.223 14.322 28.849 14.7835 29.3105C15.245 29.772 15.871 30.0313 16.5237 30.0313H16.8752C17.2482 30.0313 17.6059 30.1794 17.8696 30.4432C18.1333 30.7069 18.2815 31.0646 18.2815 31.4375C18.2815 31.8105 18.1333 32.1682 17.8696 32.4319C17.6059 32.6956 17.2482 32.8438 16.8752 32.8438H7.50749C5.8004 31.2075 4.44211 29.2427 3.51444 27.0676C2.58677 24.8925 2.1089 22.5522 2.1096 20.1875ZM19.6877 37.7656C15.8874 37.7697 12.1891 36.5356 9.15281 34.25H16.8752C17.6211 34.25 18.3365 33.9537 18.864 33.4263C19.3914 32.8988 19.6877 32.1834 19.6877 31.4375C19.6877 30.6916 19.3914 29.9762 18.864 29.4488C18.3365 28.9213 17.6211 28.625 16.8752 28.625H16.5237C16.2439 28.625 15.9757 28.5139 15.7779 28.3161C15.5801 28.1183 15.469 27.8501 15.469 27.5703C15.469 27.2906 15.5801 27.0224 15.7779 26.8246C15.9757 26.6268 16.2439 26.5156 16.5237 26.5156H20.0393C20.8785 26.5156 21.6832 26.1823 22.2766 25.5889C22.87 24.9955 23.2034 24.1908 23.2034 23.3516C23.2034 22.5124 22.87 21.7076 22.2766 21.1143C21.6832 20.5209 20.8785 20.1875 20.0393 20.1875H14.0627C13.6898 20.1875 13.3321 20.0394 13.0684 19.7756C12.8046 19.5119 12.6565 19.1542 12.6565 18.7813C12.6565 18.0354 12.3602 17.32 11.8327 16.7925C11.3053 16.2651 10.5899 15.9688 9.84398 15.9688H2.625C3.528 12.3379 5.56397 9.08901 8.43773 6.69315V8.93753C8.43773 9.68345 8.73405 10.3988 9.26149 10.9263C9.78894 11.4537 10.5043 11.75 11.2502 11.75C11.9961 11.75 12.7115 12.0463 13.239 12.5738C13.7664 13.1012 14.0627 13.8166 14.0627 14.5625C14.0638 15.6811 14.5087 16.7535 15.2996 17.5444C16.0905 18.3353 17.1629 18.7802 18.2815 18.7813H23.2034C23.9493 18.7813 24.6646 18.485 25.1921 17.9575C25.7195 17.4301 26.0159 16.7147 26.0159 15.9688C26.0159 15.2229 25.7195 14.5075 25.1921 13.98C24.6646 13.4526 23.9493 13.1563 23.2034 13.1563C22.4574 13.1563 21.7421 12.86 21.2146 12.3325C20.6872 11.8051 20.3909 11.0897 20.3909 10.3438V2.62698C24.3297 2.78176 28.1008 4.26212 31.0931 6.82815H24.9612C24.3085 6.82815 23.6825 7.08743 23.221 7.54894C22.7595 8.01046 22.5002 8.63641 22.5002 9.28909C22.5002 9.94177 22.7595 10.5677 23.221 11.0292C23.6825 11.4907 24.3085 11.75 24.9612 11.75H26.3674C26.6471 11.75 26.9154 11.8611 27.1132 12.0589C27.311 12.2567 27.4221 12.525 27.4221 12.8047C27.4221 13.4574 27.6814 14.0833 28.1429 14.5449C28.6044 15.0064 29.2304 15.2657 29.883 15.2657C30.5357 15.2657 31.1617 15.5249 31.6232 15.9864C32.0847 16.448 32.344 17.0739 32.344 17.7266C32.3453 18.7518 32.7531 19.7347 33.4781 20.4597C34.203 21.1846 35.1859 21.5925 36.2112 21.5938H37.2054C36.9879 24.3333 36.128 26.983 34.6952 29.3281H23.9065C23.347 29.3281 22.8105 29.5504 22.4149 29.946C22.0193 30.3416 21.7971 30.8781 21.7971 31.4375V37.625C21.0974 37.7134 20.393 37.7604 19.6877 37.7656ZM42.8909 42.6875C42.8909 42.874 42.8168 43.0528 42.6849 43.1847C42.553 43.3166 42.3742 43.3906 42.1877 43.3906H23.9065C23.72 43.3906 23.5412 43.3166 23.4093 43.1847C23.2774 43.0528 23.2034 42.874 23.2034 42.6875V31.4375C23.2034 31.251 23.2774 31.0722 23.4093 30.9403C23.5412 30.8085 23.72 30.7344 23.9065 30.7344H42.1877C42.3742 30.7344 42.553 30.8085 42.6849 30.9403C42.8168 31.0722 42.8909 31.251 42.8909 31.4375V42.6875Z" fill="currentcolor"/>
                              <path d="M27.4219 37.7656C27.9781 37.7656 28.5219 37.6007 28.9844 37.2916C29.4469 36.9826 29.8074 36.5433 30.0203 36.0294C30.2332 35.5155 30.2889 34.95 30.1803 34.4044C30.0718 33.8589 29.8039 33.3577 29.4106 32.9644C29.0173 32.5711 28.5161 32.3032 27.9706 32.1947C27.425 32.0861 26.8595 32.1418 26.3456 32.3547C25.8317 32.5676 25.3924 32.9281 25.0834 33.3906C24.7743 33.8531 24.6094 34.3969 24.6094 34.9531C24.6094 35.699 24.9057 36.4144 25.4331 36.9419C25.9606 37.4693 26.676 37.7656 27.4219 37.7656ZM27.4219 33.5469C27.7 33.5469 27.9719 33.6294 28.2031 33.7839C28.4344 33.9384 28.6146 34.158 28.7211 34.415C28.8275 34.6719 28.8554 34.9547 28.8011 35.2275C28.7468 35.5003 28.6129 35.7508 28.4162 35.9475C28.2196 36.1442 27.969 36.2781 27.6962 36.3324C27.4234 36.3866 27.1407 36.3588 26.8837 36.2523C26.6268 36.1459 26.4071 35.9657 26.2526 35.7344C26.0981 35.5031 26.0156 35.2313 26.0156 34.9531C26.0156 34.5802 26.1638 34.2225 26.4275 33.9588C26.6912 33.695 27.0489 33.5469 27.4219 33.5469Z" fill="currentcolor"/>
                              <path d="M40.7812 32.1406H32.3438C32.1573 32.1406 31.9784 32.2147 31.8466 32.3466C31.7147 32.4784 31.6406 32.6573 31.6406 32.8438V35.6562C31.6406 35.8427 31.7147 36.0216 31.8466 36.1534C31.9784 36.2853 32.1573 36.3594 32.3438 36.3594H40.7812C40.9677 36.3594 41.1466 36.2853 41.2784 36.1534C41.4103 36.0216 41.4844 35.8427 41.4844 35.6562V32.8438C41.4844 32.6573 41.4103 32.4784 41.2784 32.3466C41.1466 32.2147 40.9677 32.1406 40.7812 32.1406ZM40.0781 34.9531H33.0469V33.5469H40.0781V34.9531Z" fill="currentcolor"/>
                              <path d="M41.4844 37.7656H31.6406V39.1719H41.4844V37.7656Z" fill="currentcolor"/>
                              <path d="M41.4844 40.5781H24.6094V41.9844H41.4844V40.5781Z" fill="currentcolor"/>
                           </svg>