<svg width="65" height="65" viewBox="0 0 65 65" fill="none" xmlns="http://www.w3.org/2000/svg">
                                    <path d="M48.75 7.10958H47.7344V2.03146C47.7344 1.88084 47.7009 1.73209 47.6364 1.59601C47.5718 1.45992 47.4778 1.33989 47.3612 1.24462C47.2445 1.14934 47.1081 1.08121 46.9619 1.04515C46.8156 1.0091 46.6632 1.00602 46.5156 1.03614L16.0469 7.1299V7.14919C15.8195 7.19286 15.6143 7.31398 15.4661 7.49193C15.318 7.66989 15.2361 7.89367 15.2344 8.12521V62.969C15.2344 63.2383 15.3414 63.4967 15.5318 63.6871C15.7223 63.8776 15.9806 63.9846 16.25 63.9846H48.75C49.0194 63.9846 49.2777 63.8776 49.4682 63.6871C49.6586 63.4967 49.7656 63.2383 49.7656 62.969V8.12521C49.7656 7.85585 49.6586 7.59752 49.4682 7.40705C49.2777 7.21659 49.0194 7.10958 48.75 7.10958ZM45.7031 7.10958H26.5078L45.7031 3.27052V7.10958ZM47.7344 61.9533H17.2656V9.14083H47.7344V61.9533Z" fill="currentcolor"/>
                                    <path d="M32.5 33.5156C34.7096 33.5156 36.8696 32.8604 38.7068 31.6328C40.544 30.4052 41.9759 28.6604 42.8215 26.619C43.667 24.5777 43.8883 22.3314 43.4572 20.1642C43.0261 17.9971 41.9621 16.0065 40.3997 14.444C38.8373 12.8816 36.8467 11.8176 34.6795 11.3865C32.5124 10.9555 30.2661 11.1767 28.2247 12.0223C26.1833 12.8679 24.4385 14.2998 23.2109 16.137C21.9833 17.9742 21.3281 20.1342 21.3281 22.3438C21.3316 25.3056 22.5098 28.1452 24.6042 30.2396C26.6985 32.334 29.5381 33.5121 32.5 33.5156ZM32.5 31.4844C30.6178 31.4811 28.7824 30.8972 27.2442 29.8125C25.706 28.7278 24.5398 27.195 23.9048 25.4231C25.1577 25.3116 26.4084 25.6611 27.4219 26.4063L28.2344 27.0156C29.465 27.9386 30.9617 28.4375 32.5 28.4375C34.0383 28.4375 35.535 27.9386 36.7656 27.0156L37.5781 26.4063C38.5916 25.6611 39.8423 25.3116 41.0952 25.4231C40.4602 27.195 39.294 28.7278 37.7558 29.8125C36.2176 30.8972 34.3822 31.4811 32.5 31.4844ZM35.9673 20.3125L34.4297 18.7698C35.0364 18.4533 35.7097 18.2859 36.3939 18.2813C36.9581 18.2796 37.517 18.3899 38.0382 18.6057C38.5595 18.8215 39.0328 19.1386 39.4306 19.5386L40.2045 20.3125H35.9673ZM32.3212 19.5386L33.0952 20.3125H25.2393L26.6012 19.2227C27.3635 18.6146 28.3094 18.2827 29.2845 18.2813C29.8487 18.2796 30.4076 18.3899 30.9289 18.6057C31.4501 18.8215 31.9234 19.1386 32.3212 19.5386ZM23.3594 22.3438H41.6406C41.6387 22.7095 41.6146 23.0748 41.5685 23.4376C39.7239 23.1987 37.8582 23.6799 36.3594 24.7813L35.5469 25.3906C34.6592 26.0291 33.5934 26.3725 32.5 26.3725C31.4066 26.3725 30.3408 26.0291 29.4531 25.3906L28.6406 24.7813C27.1418 23.6798 25.2761 23.1986 23.4315 23.4376C23.3854 23.0748 23.3613 22.7095 23.3594 22.3438ZM32.5 13.2031C34.0692 13.2052 35.6114 13.6115 36.978 14.3828C38.3445 15.1541 39.4893 16.2645 40.302 17.6069C39.1904 16.7254 37.8126 16.2471 36.3939 16.25C35.1313 16.2588 33.9002 16.6446 32.8585 17.3581C31.8076 16.6339 30.5608 16.2474 29.2845 16.25C27.8486 16.2519 26.4556 16.7402 25.3327 17.6353L24.1973 18.5443C24.9247 16.9526 26.0937 15.6032 27.5655 14.6564C29.0373 13.7096 30.75 13.2052 32.5 13.2031Z" fill="currentcolor"/>
                                    <path d="M22.3438 43.6719H42.6562C42.9256 43.6719 43.1839 43.5649 43.3744 43.3744C43.5649 43.1839 43.6719 42.9256 43.6719 42.6562V36.5625C43.6719 36.2931 43.5649 36.0348 43.3744 35.8443C43.1839 35.6539 42.9256 35.5469 42.6562 35.5469H22.3438C22.0744 35.5469 21.8161 35.6539 21.6256 35.8443C21.4351 36.0348 21.3281 36.2931 21.3281 36.5625V42.6562C21.3281 42.9256 21.4351 43.1839 21.6256 43.3744C21.8161 43.5649 22.0744 43.6719 22.3438 43.6719ZM23.3594 37.5781H41.6406V41.6406H23.3594V37.5781Z" fill="currentcolor"/>
                                    <path d="M19.2969 45.7031H45.7031V47.7344H19.2969V45.7031Z" fill="currentcolor"/>
                                    <path d="M19.2969 49.7656H45.7031V51.7969H19.2969V49.7656Z" fill="currentcolor"/>
                                    <path d="M23.3594 53.8281H41.6406V55.8594H23.3594V53.8281Z" fill="currentcolor"/>
                                 </svg>