<svg width="45" height="46" viewBox="0 0 45 46" fill="none" xmlns="http://www.w3.org/2000/svg">
                              <path d="M22.5 1.20312C18.189 1.20312 13.9748 2.48149 10.3903 4.87656C6.80584 7.27163 4.01208 10.6758 2.36232 14.6587C0.712569 18.6416 0.280918 23.0242 1.12196 27.2524C1.96299 31.4805 4.03894 35.3644 7.08729 38.4127C10.1356 41.4611 14.0195 43.537 18.2476 44.378C22.4758 45.2191 26.8585 44.7874 30.8413 43.1377C34.8242 41.4879 38.2284 38.6942 40.6234 35.1097C43.0185 31.5252 44.2969 27.311 44.2969 23C44.2904 17.2211 41.9918 11.6808 37.9055 7.59448C33.8192 3.50818 28.2789 1.20964 22.5 1.20312ZM22.5 2.60937C25.6158 2.61002 28.69 3.32455 31.4867 4.69812C34.2834 6.07169 36.7281 8.06778 38.6334 10.5332C40.5386 12.9986 41.8537 15.8677 42.4776 18.9204C43.1015 21.9731 43.0176 25.1281 42.2325 28.1434C41.3754 27.5546 40.3576 27.2444 39.3177 27.2551C38.2779 27.2658 37.2667 27.5969 36.4219 28.2031L35.8594 28.625C35.2451 29.0676 34.5071 29.3057 33.75 29.3057C32.9929 29.3057 32.2549 29.0676 31.6406 28.625L31.0781 28.2031C30.2179 27.5841 29.1848 27.2511 28.125 27.2511C27.0652 27.2511 26.0322 27.5841 25.1719 28.2031L24.6094 28.625C24.1741 28.9469 23.6701 29.1635 23.137 29.2578C23.9982 24.5331 23.63 19.6663 22.0676 15.125L26.2224 19.2798C26.2932 19.3515 26.3789 19.407 26.4733 19.4424C26.5678 19.4777 26.6688 19.492 26.7694 19.4844C26.87 19.477 26.9678 19.4481 27.0563 19.3996C27.1447 19.351 27.2217 19.284 27.282 19.2031L28.9048 17.0389L33.9567 22.0909C34.0884 22.2226 34.2669 22.2966 34.4531 22.2969C34.5667 22.2966 34.6786 22.2691 34.7794 22.2167C34.9121 22.1471 35.019 22.0369 35.0847 21.9022C35.1503 21.7675 35.1712 21.6153 35.1443 21.4679L34.4658 17.7308C34.0633 15.5134 32.8565 13.5227 31.0767 12.1402C32.1429 12.0995 33.2089 12.2274 34.2352 12.5192L36.3699 13.1288C36.4324 13.1473 36.4973 13.1565 36.5625 13.1562C36.7015 13.1562 36.8375 13.115 36.9531 13.0377C37.0687 12.9604 37.1588 12.8506 37.212 12.7222C37.2652 12.5937 37.2791 12.4524 37.252 12.316C37.2249 12.1796 37.1579 12.0543 37.0596 11.956L33.57 8.46641C32.796 7.69196 31.8711 7.08477 30.8527 6.68249C29.8343 6.28021 28.7442 6.09141 27.6499 6.1278C26.5555 6.16419 25.4803 6.425 24.4909 6.89404C23.5015 7.36309 22.619 8.03037 21.8981 8.85453L20.006 11.0173L19.8738 10.5533C19.6092 9.62366 19.0874 8.78766 18.3686 8.14149C17.6498 7.49532 16.7631 7.06524 15.8107 6.90076C14.8582 6.73627 13.8787 6.84406 12.9848 7.21172C12.0909 7.57938 11.3189 8.19197 10.7578 8.97898L8.73985 11.8034C7.74084 12.4887 6.88782 13.3656 6.23026 14.383C5.57269 15.4005 5.12367 16.5384 4.90923 17.7308L4.23001 21.4679C4.2031 21.6153 4.224 21.7675 4.28964 21.9022C4.35529 22.0369 4.46225 22.1471 4.59493 22.2167C4.69592 22.2693 4.80805 22.2967 4.92188 22.2969C5.10835 22.2968 5.28716 22.2227 5.41899 22.0909L10.4709 17.0389L12.0938 19.2031C12.154 19.284 12.231 19.351 12.3194 19.3996C12.4079 19.4481 12.5057 19.477 12.6063 19.4844C12.7069 19.4922 12.808 19.4779 12.9025 19.4426C12.997 19.4072 13.0826 19.3517 13.1534 19.2798L18.2377 14.1955C18.0349 18.7587 17.0453 23.2526 15.3127 27.4789C14.8132 27.644 14.3435 27.8886 13.9219 28.2031L13.3594 28.625C12.7451 29.0676 12.0071 29.3057 11.25 29.3057C10.4929 29.3057 9.75493 29.0676 9.14063 28.625L8.57813 28.2031C7.7333 27.5968 6.72201 27.2657 5.68216 27.2552C4.6423 27.2446 3.62449 27.555 2.76751 28.1441C1.98241 25.1288 1.89859 21.9737 2.52249 18.921C3.14638 15.8683 4.46141 12.9991 6.36664 10.5337C8.27186 8.06822 10.7166 6.07207 13.5133 4.69841C16.31 3.32476 19.3842 2.61013 22.5 2.60937ZM19.4245 36.0155C17.8346 34.6795 15.8842 33.8449 13.8199 33.6172L14.4267 32.54C14.6292 32.1793 14.8092 31.8066 15.0005 31.4403H19.6875V30.0312H15.7156C16.0453 29.3359 16.3617 28.6341 16.6514 27.9219H21.0938V26.5156H17.1759C17.4305 25.8191 17.6649 25.1159 17.8791 24.4062H21.0938V23H18.2981C18.5456 22.0712 18.7531 21.1318 18.9352 20.1875H21.0938V18.7812H19.1799C19.4764 16.92 19.6439 15.0406 19.6812 13.1562H19.8921L20.7007 15.466C21.8633 18.8044 22.3492 22.3409 22.1301 25.8692C21.911 29.3974 20.9912 32.8467 19.4245 36.0155ZM12.2344 33.5652C10.1541 33.6478 8.14477 34.3443 6.45962 35.567C5.04274 33.7641 3.94045 31.735 3.19923 29.5651L3.51563 29.3281C4.12993 28.8855 4.86788 28.6474 5.62501 28.6474C6.38214 28.6474 7.12009 28.8855 7.73438 29.3281L8.29688 29.75C9.14884 30.389 10.1851 30.7344 11.25 30.7344C12.315 30.7344 13.3512 30.389 14.2031 29.75L14.3543 29.6375C13.9934 30.3852 13.6092 31.1218 13.2019 31.8474L12.2344 33.5652ZM10.2319 12.5312C11.3989 11.8891 12.7117 11.5587 14.0435 11.5718C15.3754 11.585 16.6814 11.9413 17.8355 12.6064L12.7315 17.7111L11.1094 15.5469C11.0489 15.4663 10.9719 15.3997 10.8834 15.3515C10.795 15.3032 10.6972 15.2746 10.5967 15.2675C10.4963 15.2603 10.3954 15.2749 10.3011 15.3101C10.2067 15.3453 10.121 15.4004 10.0498 15.4716L6.01665 19.5048L6.29298 17.9825C6.49887 16.8367 6.95977 15.7518 7.64159 14.8082C8.3234 13.8646 9.20867 13.0864 10.2319 12.5312ZM11.3527 10.5659L11.9025 9.79672C12.3097 9.22449 12.8703 8.77898 13.5197 8.51153C14.1691 8.24408 14.8808 8.16558 15.5729 8.28507C16.265 8.40457 16.9092 8.7172 17.4313 9.18693C17.9534 9.65666 18.3321 10.2644 18.5238 10.94L18.6736 11.4659L18.533 11.3851C17.4549 10.767 16.262 10.3756 15.0273 10.2347C13.7927 10.0938 12.5422 10.2066 11.3527 10.5659ZM21.5388 12.605C22.6219 11.986 23.8377 11.6359 25.0841 11.584C26.3305 11.5321 27.5712 11.78 28.702 12.3068C29.8328 12.8335 30.8207 13.6239 31.5828 14.6115C32.345 15.5991 32.8591 16.7551 33.082 17.9825L33.3584 19.5048L29.3252 15.4716C29.1934 15.3398 29.0146 15.2657 28.8281 15.2656H28.7782C28.6776 15.273 28.5797 15.3019 28.4913 15.3504C28.4029 15.399 28.3259 15.466 28.2656 15.5469L26.6428 17.7111L21.5388 12.605ZM29.1094 10.9681C28.0033 10.4741 26.8098 10.2057 25.5987 10.1787C24.3877 10.1516 23.1833 10.3665 22.0563 10.8106L22.9599 9.78125C23.5538 9.10237 24.2808 8.55269 25.0959 8.1663C25.911 7.7799 26.7967 7.56501 27.6983 7.53495C28.5998 7.50489 29.4979 7.6603 30.3369 7.99155C31.1759 8.32279 31.9379 8.82281 32.5758 9.46062L34.1613 11.0469C32.5039 10.6475 30.7785 10.6206 29.1094 10.9681ZM7.36243 36.6455C8.67879 35.7083 10.2203 35.1372 11.8296 34.9906C13.4389 34.8439 15.0582 35.1271 16.5223 35.811C17.9864 36.495 19.2427 37.5552 20.1629 38.8835C21.0832 40.2118 21.6344 41.7606 21.7603 43.3716C19.0319 43.274 16.351 42.6281 13.8775 41.4726C11.4039 40.317 9.18822 38.6754 7.36243 36.6455ZM23.1666 43.3737C23.0075 41.0227 22.0616 38.7936 20.4813 37.0456C21.519 35.0352 22.3081 32.9059 22.8312 30.7048C23.7787 30.645 24.689 30.3135 25.4531 29.75L26.0156 29.3281C26.6299 28.8855 27.3679 28.6474 28.125 28.6474C28.8821 28.6474 29.6201 28.8855 30.2344 29.3281L30.7969 29.75C31.6488 30.389 32.6851 30.7344 33.75 30.7344C34.815 30.7344 35.8512 30.389 36.7031 29.75L37.2656 29.3281C37.8799 28.8855 38.6179 28.6474 39.375 28.6474C40.1321 28.6474 40.8701 28.8855 41.4844 29.3281L41.8001 29.5651C40.461 33.4849 37.9617 36.9049 34.6337 39.3711C31.3057 41.8374 27.3064 43.2333 23.1666 43.3737Z" fill="currentcolor"/>
                           </svg>