<svg width="65" height="65" viewBox="0 0 65 65" fill="none" xmlns="http://www.w3.org/2000/svg">
                                    <path d="M58.9062 18.2812V17.2656C58.9036 16.6377 58.7071 16.0259 58.3435 15.514C57.9799 15.002 57.467 14.6149 56.875 14.4056V13.2031C56.875 12.395 56.554 11.6201 55.9826 11.0487C55.4112 10.4773 54.6362 10.1562 53.8281 10.1562C53.02 10.1562 52.2451 10.4773 51.6737 11.0487C51.1023 11.6201 50.7812 12.395 50.7812 13.2031V14.4056C50.1892 14.6149 49.6763 15.002 49.3127 15.514C48.9492 16.0259 48.7526 16.6377 48.75 17.2656V18.2812H44.6875V9.14062C44.6875 8.33254 44.3665 7.55756 43.7951 6.98616C43.2237 6.41476 42.4487 6.09375 41.6406 6.09375H23.3594C22.5513 6.09375 21.7763 6.41476 21.2049 6.98616C20.6335 7.55756 20.3125 8.33254 20.3125 9.14062V18.2812H16.25V17.2656C16.2474 16.6377 16.0509 16.0259 15.6873 15.514C15.3237 15.002 14.8108 14.6149 14.2188 14.4056V13.2031C14.2188 12.395 13.8977 11.6201 13.3263 11.0487C12.7549 10.4773 11.98 10.1562 11.1719 10.1562C10.3638 10.1562 9.58881 10.4773 9.01741 11.0487C8.44601 11.6201 8.125 12.395 8.125 13.2031V14.4056C7.53298 14.6149 7.02009 15.002 6.6565 15.514C6.2929 16.0259 6.09635 16.6377 6.09375 17.2656V18.2812C4.74744 18.2829 3.45674 18.8184 2.50475 19.7704C1.55277 20.7224 1.01724 22.0131 1.01562 23.3594V53.8281C1.01724 55.1744 1.55277 56.4651 2.50475 57.4171C3.45674 58.3691 4.74744 58.9046 6.09375 58.9062H58.9062C60.2526 58.9046 61.5433 58.3691 62.4952 57.4171C63.4472 56.4651 63.9828 55.1744 63.9844 53.8281V23.3594C63.9828 22.0131 63.4472 20.7224 62.4952 19.7704C61.5433 18.8184 60.2526 18.2829 58.9062 18.2812ZM12.1875 20.3125V56.875H10.1562V20.3125H12.1875ZM14.2188 20.3125H50.7812V56.875H14.2188V20.3125ZM38.5938 12.1875V18.2812H26.4062V12.1875H38.5938ZM52.8125 20.3125H54.8438V56.875H52.8125V20.3125ZM53.8281 12.1875C54.0975 12.1875 54.3558 12.2945 54.5463 12.485C54.7367 12.6754 54.8438 12.9338 54.8438 13.2031V14.2188H52.8125V13.2031C52.8125 12.9338 52.9195 12.6754 53.11 12.485C53.3004 12.2945 53.5588 12.1875 53.8281 12.1875ZM50.7812 17.2656C50.7812 16.9963 50.8883 16.7379 51.0787 16.5475C51.2692 16.357 51.5275 16.25 51.7969 16.25H55.8594C56.1287 16.25 56.3871 16.357 56.5775 16.5475C56.768 16.7379 56.875 16.9963 56.875 17.2656V18.2812H50.7812V17.2656ZM40.625 18.2812V12.1875H42.6562V18.2812H40.625ZM22.3438 9.14062C22.3438 8.87126 22.4508 8.61294 22.6412 8.42247C22.8317 8.232 23.09 8.125 23.3594 8.125H41.6406C41.91 8.125 42.1683 8.232 42.3588 8.42247C42.5492 8.61294 42.6562 8.87126 42.6562 9.14062V10.1562H22.3438V9.14062ZM22.3438 12.1875H24.375V18.2812H22.3438V12.1875ZM11.1719 12.1875C11.4412 12.1875 11.6996 12.2945 11.89 12.485C12.0805 12.6754 12.1875 12.9338 12.1875 13.2031V14.2188H10.1562V13.2031C10.1562 12.9338 10.2633 12.6754 10.4537 12.485C10.6442 12.2945 10.9025 12.1875 11.1719 12.1875ZM8.125 17.2656C8.125 16.9963 8.232 16.7379 8.42247 16.5475C8.61294 16.357 8.87126 16.25 9.14062 16.25H13.2031C13.4725 16.25 13.7308 16.357 13.9213 16.5475C14.1117 16.7379 14.2188 16.9963 14.2188 17.2656V18.2812H8.125V17.2656ZM3.04688 53.8281V23.3594C3.04688 22.5513 3.36788 21.7763 3.93928 21.2049C4.51068 20.6335 5.28567 20.3125 6.09375 20.3125H8.125V56.875H6.09375C5.28567 56.875 4.51068 56.554 3.93928 55.9826C3.36788 55.4112 3.04688 54.6362 3.04688 53.8281ZM61.9531 53.8281C61.9531 54.6362 61.6321 55.4112 61.0607 55.9826C60.4893 56.554 59.7143 56.875 58.9062 56.875H56.875V20.3125H58.9062C59.7143 20.3125 60.4893 20.6335 61.0607 21.2049C61.6321 21.7763 61.9531 22.5513 61.9531 23.3594V53.8281Z" fill="currentcolor"/>
                                    <path d="M32.5 22.3438C29.2861 22.3438 26.1443 23.2968 23.472 25.0824C20.7997 26.8679 18.7169 29.4058 17.487 32.3751C16.257 35.3444 15.9352 38.6118 16.5622 41.764C17.1893 44.9162 18.7369 47.8116 21.0095 50.0842C23.2821 52.3568 26.1776 53.9045 29.3298 54.5315C32.482 55.1585 35.7493 54.8367 38.7186 53.6068C41.6879 52.3769 44.2258 50.2941 46.0114 47.6218C47.797 44.9495 48.75 41.8077 48.75 38.5937C48.7449 34.2855 47.0312 30.1553 43.9848 27.1089C40.9385 24.0625 36.8082 22.3489 32.5 22.3438ZM44.4844 44.6875C43.491 44.6882 42.5197 44.3941 41.6934 43.8425C40.5352 43.0693 39.1739 42.6565 37.7813 42.6562H37.375C35.9803 42.6553 34.6167 43.0681 33.4567 43.8425C32.6322 44.3929 31.6632 44.687 30.6719 44.6875H30.2656C29.2722 44.6882 28.3009 44.3941 27.4747 43.8425C26.3165 43.0693 24.9551 42.6565 23.5625 42.6562H23.1563C21.7801 42.6562 20.4342 43.0595 19.2847 43.8161C18.7534 42.471 18.4324 41.0522 18.3331 39.6094H46.669C46.5448 41.3711 46.0904 43.0938 45.3294 44.6875H44.4844ZM18.3331 37.5781C18.3463 37.3912 18.3534 37.2034 18.3737 37.0195L23.0252 33.6964C24.1894 32.8919 25.5826 32.4856 26.9967 32.5383C28.4108 32.5911 29.7699 33.0999 30.8709 33.9889L34.8959 37.3405L36.1979 35.7805L34.3952 34.2784L35.2077 33.6944C36.3717 32.8897 37.765 32.4833 39.1791 32.536C40.5933 32.5888 41.9524 33.0977 43.0534 33.9869L46.608 36.9515C46.6324 37.1546 46.6446 37.3669 46.6588 37.5761L18.3331 37.5781ZM32.5 24.375C35.3967 24.3812 38.2225 25.2712 40.6 26.9261C42.9774 28.5811 44.7932 30.9221 45.8047 33.6365L44.3544 32.4279C42.9178 31.231 41.125 30.5441 39.2564 30.4746C37.3879 30.4052 35.549 30.9571 34.0275 32.044L32.7773 32.9367L32.1679 32.4289C30.7313 31.232 28.9385 30.5451 27.0699 30.4757C25.2014 30.4062 23.3625 30.9581 21.841 32.045L19.0359 34.0478C19.9887 31.2312 21.7996 28.7837 24.2144 27.0489C26.6292 25.3141 29.5266 24.379 32.5 24.375ZM32.5 52.8125C29.9985 52.8094 27.5421 52.1465 25.3787 50.8906C23.2153 49.6347 21.4215 47.8302 20.1784 45.6595L20.3684 45.5325C21.1937 44.9815 22.1639 44.6874 23.1563 44.6875H23.5625C24.5559 44.6868 25.5272 44.9809 26.3534 45.5325C27.5117 46.3057 28.873 46.7185 30.2656 46.7187H30.6719C32.0666 46.7197 33.4302 46.3069 34.5902 45.5325C35.4146 44.982 36.3837 44.688 37.375 44.6875H37.7813C38.7747 44.6868 39.746 44.9809 40.5722 45.5325C41.6436 46.2417 42.8888 46.6439 44.1726 46.6954C42.8657 48.582 41.1212 50.1239 39.0884 51.1892C37.0556 52.2545 34.795 52.8115 32.5 52.8125Z" fill="currentcolor"/>
                                    <path d="M32.5 30.4688C33.6218 30.4688 34.5312 29.5593 34.5312 28.4375C34.5312 27.3157 33.6218 26.4062 32.5 26.4062C31.3782 26.4062 30.4688 27.3157 30.4688 28.4375C30.4688 29.5593 31.3782 30.4688 32.5 30.4688Z" fill="currentcolor"/>
                                 </svg>