<svg width="29" height="33" viewBox="0 0 29 33" fill="none" xmlns="http://www.w3.org/2000/svg">
                                 <path d="M26.6933 14.0089L4.7906 1.05667C4.33808 0.783334 3.8208 0.635744 3.29218 0.629138C2.76356 0.622532 2.24275 0.75715 1.78354 1.01909C1.32434 1.28103 0.943371 1.6608 0.679986 2.11918C0.416601 2.57756 0.280344 3.09794 0.285286 3.62658V29.5177C0.285432 30.0443 0.424934 30.5615 0.689627 31.0168C0.954319 31.472 1.33477 31.8492 1.79235 32.1098C2.24994 32.3705 2.76834 32.5054 3.29494 32.5009C3.82153 32.4963 4.33755 32.3526 4.7906 32.0841L26.6933 19.1416C27.1402 18.8779 27.5106 18.5021 27.768 18.0514C28.0253 17.6007 28.1607 17.0907 28.1607 16.5717C28.1607 16.0527 28.0253 15.5427 27.768 15.092C27.5106 14.6414 27.1402 14.2656 26.6933 14.0018V14.0089Z" fill="currentcolor"/>
                              </svg>